<?xml version="1.0" encoding="utf-8"?>
<!-- Generator: Adobe Illustrator 21.0.2, SVG Export Plug-In . SVG Version: 6.00 Build 0)  -->
<svg version="1.1" id="Layer_1" xmlns="http://www.w3.org/2000/svg" xmlns:xlink="http://www.w3.org/1999/xlink" x="0px" y="0px"
	 viewBox="0 0 658 266" style="enable-background:new 0 0 658 266;" xml:space="preserve">
<style type="text/css">
	.st0{fill:url(#SVGID_1_);}
	.st1{fill:url(#SVGID_2_);}
	.st2{fill:url(#SVGID_3_);}
	.st3{fill:url(#SVGID_4_);}
	.st4{fill:url(#SVGID_5_);}
	.st5{fill:url(#SVGID_6_);}
	.st6{fill:url(#SVGID_7_);}
	.st7{fill:url(#SVGID_8_);}
	.st8{fill:url(#SVGID_9_);}
	.st9{fill:url(#SVGID_10_);}
	.st10{fill:url(#SVGID_11_);}
	.st11{fill:url(#SVGID_12_);}
	.st12{fill:#808184;}
</style>
<g>
	
		<linearGradient id="SVGID_1_" gradientUnits="userSpaceOnUse" x1="52.6558" y1="442.6966" x2="291.7779" y2="442.6966" gradientTransform="matrix(0.7071 0.7071 0.7071 -0.7071 -314.5474 319.3533)">
		<stop  offset="0" style="stop-color:#FAAA25"/>
		<stop  offset="1" style="stop-color:#FFC836"/>
	</linearGradient>
	<path class="st0" d="M42.3,206c-44.9-44.9-44.9-117.9,0-162.8C64,21.5,93,9.5,123.7,9.5c14.6,0,28.8,2.8,42,7.8l1.7-4.1
		C124.5-3.6,73.8,5.3,39.2,40c-46.6,46.6-46.6,122.4,0,169c9.8,9.8,20.9,17.5,32.6,23.2l1.7-4.1C62.1,222.7,51.5,215.3,42.3,206z"/>
	
		<linearGradient id="SVGID_2_" gradientUnits="userSpaceOnUse" x1="52.6376" y1="442.9014" x2="291.7559" y2="442.9014" gradientTransform="matrix(0.7071 0.7071 0.7071 -0.7071 -314.5474 319.3533)">
		<stop  offset="0" style="stop-color:#FAAA25"/>
		<stop  offset="1" style="stop-color:#FFC836"/>
	</linearGradient>
	<path class="st1" d="M45,45.8C1.6,89.3,1.6,160,45,203.4c9,9,19.1,16.1,30.1,21.4l2.9-6.7c-10.1-5.1-19.7-11.7-28-20
		c-19.7-19.7-30.6-45.8-30.6-73.6s10.9-54,30.6-73.6c19.7-19.7,45.8-30.6,73.6-30.6c13,0,25.8,2.5,37.5,7l2.9-6.7
		c-12.7-4.9-26.4-7.5-40.4-7.5C94,13.1,66,24.7,45,45.8z"/>
	
		<linearGradient id="SVGID_3_" gradientUnits="userSpaceOnUse" x1="58.9102" y1="442.9014" x2="285.4844" y2="442.9014" gradientTransform="matrix(0.7071 0.7071 0.7071 -0.7071 -314.5474 319.3533)">
		<stop  offset="0" style="stop-color:#FAAA25"/>
		<stop  offset="1" style="stop-color:#FFC836"/>
	</linearGradient>
	<path class="st2" d="M45,45.8C1.6,89.3,1.6,160,45,203.4c9,9,19.1,16.1,30.1,21.4l2.9-6.7c-10.1-5.1-19.7-11.7-28-20
		c-19.7-19.7-30.6-45.8-30.6-73.6s10.9-54,30.6-73.6c19.7-19.7,45.8-30.6,73.6-30.6c13,0,25.8,2.5,37.5,7l2.9-6.7
		c-12.7-4.9-26.4-7.5-40.4-7.5C94,13.1,66,24.7,45,45.8z"/>
	
		<linearGradient id="SVGID_4_" gradientUnits="userSpaceOnUse" x1="52.6373" y1="443.4648" x2="291.7549" y2="443.4648" gradientTransform="matrix(0.7071 0.7071 0.7071 -0.7071 -314.5474 319.3533)">
		<stop  offset="0" style="stop-color:#FAAA25"/>
		<stop  offset="1" style="stop-color:#FFC836"/>
	</linearGradient>
	<path class="st3" d="M74.6,173.9c-27.2-27.2-27.2-71.3,0-98.5c19.7-19.7,48.4-25.1,72.9-16.2l10.9-24.9
		c-10.9-4.2-22.6-6.4-34.6-6.4c-25.8,0-50.1,10-68.4,28.2c-18.2,18.2-28.2,42.6-28.2,68.4s10,50.1,28.2,68.4
		c7.5,7.5,16.2,13.8,25.6,18.4l10.9-24.9C85.6,183.3,79.8,179.1,74.6,173.9z"/>
	
		<linearGradient id="SVGID_5_" gradientUnits="userSpaceOnUse" x1="58.91" y1="443.4648" x2="285.482" y2="443.4648" gradientTransform="matrix(0.7071 0.7071 0.7071 -0.7071 -314.5474 319.3533)">
		<stop  offset="0" style="stop-color:#FAAA25"/>
		<stop  offset="1" style="stop-color:#FFC836"/>
	</linearGradient>
	<path class="st4" d="M74.6,173.9c-27.2-27.2-27.2-71.3,0-98.5c19.7-19.7,48.4-25.1,72.9-16.2l10.9-24.9
		c-10.9-4.2-22.6-6.4-34.6-6.4c-25.8,0-50.1,10-68.4,28.2c-18.2,18.2-28.2,42.6-28.2,68.4s10,50.1,28.2,68.4
		c7.5,7.5,16.2,13.8,25.6,18.4l10.9-24.9C85.6,183.3,79.8,179.1,74.6,173.9z"/>
	
		<linearGradient id="SVGID_6_" gradientUnits="userSpaceOnUse" x1="71.7942" y1="443.4648" x2="272.5977" y2="443.4648" gradientTransform="matrix(0.7071 0.7071 0.7071 -0.7071 -314.5474 319.3533)">
		<stop  offset="0" style="stop-color:#FAAA25"/>
		<stop  offset="1" style="stop-color:#FFC836"/>
	</linearGradient>
	<path class="st5" d="M74.6,173.9c-27.2-27.2-27.2-71.3,0-98.5c19.7-19.7,48.4-25.1,72.9-16.2l10.9-24.9
		c-10.9-4.2-22.6-6.4-34.6-6.4c-25.8,0-50.1,10-68.4,28.2c-18.2,18.2-28.2,42.6-28.2,68.4s10,50.1,28.2,68.4
		c7.5,7.5,16.2,13.8,25.6,18.4l10.9-24.9C85.6,183.3,79.8,179.1,74.6,173.9z"/>
</g>
<g>
	
		<linearGradient id="SVGID_7_" gradientUnits="userSpaceOnUse" x1="294.1545" y1="88.0425" x2="294.1545" y2="244.1787" gradientTransform="matrix(1 0 0 -1 0 268)">
		<stop  offset="0" style="stop-color:#1F76B9"/>
		<stop  offset="1" style="stop-color:#29A5DE"/>
	</linearGradient>
	<path class="st6" d="M308.5,155.9H306c-6.5,0-7.5-7.2-7.5-11.6V30.5c0-3.6-3-6.7-6.7-6.7H280c-3.6,0-6.7,3-6.7,6.7v115.1
		c0,29.8,19.3,34.3,30.7,34.3h4.3c3.6,0,6.7-3,6.7-6.7v-10.7C315.3,159,312.2,155.9,308.5,155.9z"/>
	
		<linearGradient id="SVGID_8_" gradientUnits="userSpaceOnUse" x1="359.4058" y1="85.7251" x2="359.4058" y2="199.858" gradientTransform="matrix(1 0 0 -1 0 268)">
		<stop  offset="0" style="stop-color:#1F76B9"/>
		<stop  offset="1" style="stop-color:#29A5DE"/>
	</linearGradient>
	<path class="st7" d="M397.6,151.7c-1.2-1.4-2.8-2.3-4.5-2.5c-1.7-0.1-3.5,0.3-4.9,1.4c-4.2,3.5-10.7,7.5-18.1,7.5
		c-18,0-31.6-13.9-31.6-32.2c0-23.5,14.9-33.9,29.8-33.9c7,0,13.3,2.5,19.1,7.4c2.8,2.3,7,2,9.4-0.7l8.1-9.4
		c1.2-1.4,1.7-3.2,1.6-5.1c-0.1-1.9-1.2-3.5-2.6-4.6c-4.6-3.5-17.5-11.6-35.6-11.6c-30.9,0-56.1,25.8-56.1,57.4
		c0,32.3,24,56.8,55.8,56.8c13.8,0,26.5-4.6,35.8-13c2.6-2.3,2.9-6.4,0.7-9.1L397.6,151.7z"/>
	
		<linearGradient id="SVGID_9_" gradientUnits="userSpaceOnUse" x1="459.6956" y1="85.7251" x2="459.6956" y2="199.858" gradientTransform="matrix(1 0 0 -1 0 268)">
		<stop  offset="0" style="stop-color:#1F76B9"/>
		<stop  offset="1" style="stop-color:#29A5DE"/>
	</linearGradient>
	<path class="st8" d="M459.3,68.1c-32.7,0-56.3,23.9-56.3,56.9c0,27.5,18.5,57.2,59.4,57.2c18.1,0,32.9-6.7,46.5-21
		c1.3-1.3,2-3.2,1.9-5.1c-0.1-1.9-1-3.6-2.5-4.8l-9-7.1c-2.8-2.2-6.7-1.9-9,0.7c-8.1,8.7-17.8,13.2-28.1,13.2
		c-15.5,0-27.8-8.8-31.9-22.6h79.5c1.9,0,3.5-0.7,4.8-2c1.3-1.3,1.9-3,1.9-4.9C515.2,92.5,492.1,68.1,459.3,68.1z M459,92.2
		c14.5,0,25.9,8.7,29.1,21.6h-58.2C432.9,102.9,441.7,92.2,459,92.2z"/>
	
		<linearGradient id="SVGID_10_" gradientUnits="userSpaceOnUse" x1="562.9658" y1="37.9283" x2="562.9658" y2="197.5406" gradientTransform="matrix(1 0 0 -1 0 268)">
		<stop  offset="0" style="stop-color:#1F76B9"/>
		<stop  offset="1" style="stop-color:#29A5DE"/>
	</linearGradient>
	<path class="st9" d="M616.3,73.5c-1.3-1.9-3.3-3-5.5-3h-12.5c-2.8,0-5.1,1.6-6.1,4.1L563.4,143L535,74.5c-1-2.5-3.5-4.1-6.2-4.1
		h-13.6c-2.2,0-4.3,1.2-5.5,3c-1.2,1.9-1.4,4.2-0.6,6.2l40.1,94.9l-20.3,46.2c-0.9,2-0.7,4.5,0.6,6.2c1.3,1.9,3.3,3,5.5,3h12.2
		c2.6,0,5.1-1.6,6.1-4.1l63.6-146.3C617.7,77.7,617.4,75.4,616.3,73.5z"/>
	
		<linearGradient id="SVGID_11_" gradientUnits="userSpaceOnUse" x1="115.787" y1="85.7251" x2="115.787" y2="199.858" gradientTransform="matrix(1 0 0 -1 0 268)">
		<stop  offset="0" style="stop-color:#1F76B9"/>
		<stop  offset="1" style="stop-color:#29A5DE"/>
	</linearGradient>
	<path class="st10" d="M153.9,151.7c-1.2-1.4-2.8-2.3-4.5-2.5c-1.7-0.1-3.6,0.3-4.9,1.4c-4.2,3.5-10.7,7.5-18.1,7.5
		c-18,0-31.6-13.9-31.6-32.2c0-23.5,14.9-33.9,29.8-33.9c7,0,13.3,2.5,19.1,7.4c2.8,2.3,7,2,9.4-0.7l8.1-9.4
		c1.2-1.4,1.7-3.2,1.6-5.1c-0.1-1.9-1.2-3.5-2.6-4.6c-4.6-3.5-17.5-11.6-35.6-11.6c-30.9,0-56.1,25.8-56.1,57.4
		c0,32.3,24,56.8,55.8,56.8c13.8,0,26.5-4.6,35.8-13c2.6-2.3,2.9-6.4,0.7-9.1L153.9,151.7z"/>
	
		<linearGradient id="SVGID_12_" gradientUnits="userSpaceOnUse" x1="210.5005" y1="85.727" x2="210.5005" y2="199.128" gradientTransform="matrix(1 0 0 -1 0 268)">
		<stop  offset="0" style="stop-color:#1F76B9"/>
		<stop  offset="1" style="stop-color:#29A5DE"/>
	</linearGradient>
	<path class="st11" d="M254.2,68.9L242.3,69c-3.6,0-6.7,3-6.7,6.7v7c-9.8-8.7-20.1-10.7-27.7-10.7c-33,0-47.9,28.1-47.9,54.2
		c0,33.2,19.8,56.3,48.2,56.3c11.6,0,20.7-3.8,28.7-12v1.9c0,3.6,3,6.7,6.7,6.7h10.7c3.6,0,6.7-3,6.7-6.7V75.5c0-1.7-0.7-3.5-2-4.8
		C257.6,69.6,255.8,68.9,254.2,68.9z M211.3,159.1c-19.8,0-27.2-19.7-27.2-32c0-12.5,7.4-32,27.2-32c19.7,0,24.9,20.1,24.9,32
		C236.2,139,231,159.1,211.3,159.1z"/>
</g>
<g>
	<path class="st12" d="M114.1,234.3c0,5.4,4.2,9.7,9.6,9.7c0.9,0,1.7-0.1,2.6-0.4l1.3,3.2c-1.2,0.4-2.6,0.6-3.8,0.6
		c-7.1,0-13.2-5.9-13.2-13.2V194h3.5v12.6h14.2v3.5h-14.2L114.1,234.3L114.1,234.3z"/>
	<path class="st12" d="M141.2,234.3c0,5.4,4.3,9.7,9.7,9.7c2.2,0,4.2-0.7,5.9-2l2.5,2.5c-2.5,1.9-5.4,3-8.4,3
		c-7.2,0-13.2-5.9-13.2-13.2v-17.5c0-7.2,5.9-13.2,13.2-13.2c7.1,0,13,5.9,13,13.2v9h-22.7V234.3z M150.9,207
		c-5.4,0-9.7,4.3-9.7,9.7v5.5h19.3v-5.5C160.6,211.4,156.3,207,150.9,207z"/>
	<path class="st12" d="M176.5,234.3v-17.5c0-7.2,5.9-13.2,13-13.2c4.2,0,8.1,2,10.6,5.4l-3,1.7c-1.7-2.3-4.5-3.8-7.5-3.8
		c-5.2,0-9.6,4.3-9.6,9.7v17.5c0,5.4,4.3,9.7,9.6,9.7c3,0,5.8-1.4,7.5-3.8l3,1.7c-2.5,3.3-6.4,5.4-10.6,5.4
		C182.5,247.5,176.5,241.5,176.5,234.3z"/>
	<path class="st12" d="M233.9,216.7c0-5.4-4.2-9.6-9.6-9.6s-9.6,4.2-9.6,9.6v29.5h-3.5v-58.4h3.5v19.7c4.1-3,6.8-4.1,9.6-4.1
		c7.1,0,13.2,5.9,13.2,13.2v29.5H234v-29.5H233.9z"/>
	<path class="st12" d="M273.1,216.7c0-5.4-4.3-9.7-9.6-9.7c-5.4,0-9.6,4.3-9.6,9.7v29.5h-3.5v-29.5c0-7.2,5.9-13.2,13.2-13.2
		c7.1,0,13,5.9,13,13.2v29.5h-3.5v-29.5H273.1z"/>
	<path class="st12" d="M290.8,234.3v-17.5c0-7.2,5.9-13.2,13.2-13.2c7.1,0,13.2,5.9,13.2,13.2v17.5c0,7.2-5.9,13.2-13.2,13.2
		C296.8,247.5,290.8,241.5,290.8,234.3z M304,207c-5.4,0-9.6,4.3-9.6,9.7v17.5c0,5.4,4.3,9.7,9.6,9.7c5.4,0,9.6-4.3,9.6-9.7v-17.5
		C313.6,211.5,309.4,207,304,207z"/>
	<path class="st12" d="M331.4,183.9h3.5v50.4c0,5.1,3.8,9,8.5,9.6v3.5c-6.8-0.6-12-6.2-12-13V183.9z"/>
	<path class="st12" d="M354.4,234.3v-17.5c0-7.2,5.9-13.2,13.2-13.2c7.1,0,13.2,5.9,13.2,13.2v17.5c0,7.2-5.9,13.2-13.2,13.2
		C360.3,247.5,354.4,241.5,354.4,234.3z M367.4,207c-5.4,0-9.6,4.3-9.6,9.7v17.5c0,5.4,4.3,9.7,9.6,9.7c5.4,0,9.6-4.3,9.6-9.7v-17.5
		C377.1,211.5,372.9,207,367.4,207z"/>
	<path class="st12" d="M397.8,259.9l2.6-2.6c1.7,1.3,3.8,2,5.9,2c5.4,0,9.6-4.3,9.6-9.6v-6.5c-4.1,3-6.8,4.1-9.6,4.1
		c-7.1,0-13.2-5.9-13.2-13.2v-17.4c0-7.2,5.9-13.2,13.2-13.2c7.1,0,13,5.9,13,13.2v17.5v15.6c0,7.1-5.9,13-13,13
		C403.1,263,400.2,261.8,397.8,259.9z M406.3,207c-5.4,0-9.6,4.3-9.6,9.7v17.5c0,5.4,4.2,9.7,9.6,9.7c5.4,0,9.6-4.3,9.6-9.7v-17.5
		C415.8,211.4,411.5,207,406.3,207z"/>
	<path class="st12" d="M433.2,191.8c0-1.4,1.3-2.8,2.8-2.8c1.4,0,2.6,1.2,2.6,2.8c0,1.6-1.2,2.8-2.6,2.8
		C434.5,194.6,433.2,193.3,433.2,191.8z M434.1,206.6h3.5v39.7h-3.5V206.6z"/>
	<path class="st12" d="M455.2,234.3c0,5.4,4.3,9.7,9.7,9.7c2.2,0,4.2-0.7,5.9-2l2.5,2.5c-2.5,1.9-5.4,3-8.4,3
		c-7.2,0-13.2-5.9-13.2-13.2v-17.5c0-7.2,5.9-13.2,13.2-13.2c7.1,0,13,5.9,13,13.2v9h-22.7L455.2,234.3L455.2,234.3z M464.9,207
		c-5.4,0-9.7,4.3-9.7,9.7v5.5h19.3v-5.5C474.5,211.4,470.1,207,464.9,207z"/>
	<path class="st12" d="M489.8,242.5l2.9-1.4c1.9,2,4.5,3.5,7.5,3.5c5.4,0.1,9.7-3.9,9.8-8.5c0.1-5.2-4.2-7.1-9.8-9.1
		c-5.2-1.9-12.2-4.5-12-11.9c0.1-6.4,6.1-11.4,13.3-11.3c4.2,0.1,8.1,1.9,10.4,4.8l-3,1.4c-1.7-2.2-4.5-3.5-7.5-3.5
		c-5.4-0.1-9.7,3.9-9.8,8.5c-0.1,5.2,4.2,7.2,9.8,9.1c5.4,1.9,12.2,4.5,12,11.9c-0.1,6.4-6.1,11.4-13.2,11.3
		C496.1,247.3,492.1,245.6,489.8,242.5z"/>
</g>
<g>
	<path class="st12" d="M632.6,66.7h-3V53.5c1.2-0.3,2.9-0.4,5.1-0.4c2.5,0,3.6,0.4,4.6,1c0.7,0.6,1.3,1.6,1.3,2.9
		c0,1.4-1.2,2.6-2.8,3v0.1c1.3,0.4,2,1.4,2.5,3.2c0.4,2,0.6,2.8,1,3.3H638c-0.4-0.4-0.6-1.7-1-3.2c-0.3-1.4-1-2-2.8-2h-1.4v5.2
		H632.6z M632.6,59.2h1.4c1.7,0,3-0.6,3-1.9c0-1.2-0.9-2-2.8-2c-0.9,0-1.3,0.1-1.7,0.1L632.6,59.2L632.6,59.2z"/>
</g>
<g>
	<path class="st12" d="M634.7,74.2c-8,0-14.3-6.4-14.3-14.3s6.4-14.3,14.3-14.3S649,51.9,649,59.9C649,67.7,642.6,74.2,634.7,74.2z
		 M634.7,48.3c-6.4,0-11.6,5.2-11.6,11.6c0,6.4,5.2,11.6,11.6,11.6c6.4,0,11.6-5.2,11.6-11.6C646.2,53.5,641,48.3,634.7,48.3z"/>
</g>
</svg>
