<svg xmlns="http://www.w3.org/2000/svg" viewBox="0 0 49.98 35.15"><defs><style>.cls-1{fill:#ff5a61;}</style></defs><title>different_Asset 4</title><g id="Layer_2" data-name="Layer 2"><g id="Layer_1-2" data-name="Layer 1"><path class="cls-1" d="M42.71,2.76H41.52V2h3.21v.74H43.52V6.4h-.81Zm2.76-.93,2.26,2.22L50,1.83V6.4h-.8V3.59L47.73,5,46.26,3.59V6.4h-.79Z"/><path class="cls-1" d="M0,8.55a3.7,3.7,0,1,1,3.7,3.7A3.72,3.72,0,0,1,0,8.55ZM0,26.6a3.7,3.7,0,1,1,3.7,3.7A3.72,3.72,0,0,1,0,26.6Z"/><path class="cls-1" d="M13.57,0H25.9A17.71,17.71,0,0,1,43.77,17.58,17.7,17.7,0,0,1,25.9,35.15H13.57ZM25.69,28.71c6.34,0,10.66-5.06,10.66-11.13S32,6.44,25.69,6.44H21V28.71Z"/></g></g></svg>