<svg width="271" height="27" viewBox="0 0 271 27" fill="none" xmlns="http://www.w3.org/2000/svg">
<path d="M0.796753 0.243866V26.5758H27.1287V0.243866H0.796753ZM16.3999 14.0696H13.3015V23.6501H10.8044V14.0696H7.77034V11.947H16.3999V14.0696ZM16.8856 23.103V20.5414C16.8856 20.5414 18.2841 21.5962 19.9635 21.5962C21.6429 21.5962 21.5771 20.499 21.5771 20.3483C21.5771 18.7552 16.8212 18.7552 16.8212 15.2268C16.8212 10.427 23.7509 12.3215 23.7509 12.3215L23.6646 14.6021C23.6646 14.6021 22.5031 13.8268 21.1894 13.8268C19.8772 13.8268 19.4032 14.4514 19.4032 15.1185C19.4032 16.8403 24.203 16.6677 24.203 20.1333C24.203 25.4699 16.8856 23.103 16.8856 23.103Z" fill="white"/>
<path d="M66.4386 0.243866H45.7492C44.1916 0.243866 42.9279 1.44438 42.9279 2.92409V22.579C42.9279 24.0587 44.1916 25.2592 45.7492 25.2592H66.4386C67.9962 25.2592 69.2599 24.0587 69.2599 22.579V2.92409C69.2599 1.44438 67.9962 0.243866 66.4386 0.243866ZM57.2577 19.7536C57.2577 22.1882 55.753 23.2993 53.5606 23.2993C51.5799 23.2993 50.4337 22.3278 49.8459 21.1496L51.862 19.9937C52.2499 20.647 52.6026 21.1998 53.4548 21.1998C54.266 21.1998 54.7832 20.8983 54.7832 19.7201V11.7297H57.2577V19.7536V19.7536ZM63.1119 23.2993C60.8137 23.2993 59.3266 22.2608 58.6037 20.8983L60.6197 19.7927C61.1487 20.6135 61.8423 21.2222 63.059 21.2222C64.0817 21.2222 64.74 20.7364 64.74 20.0607C64.74 19.2567 64.0699 18.9719 62.9355 18.4973L62.3184 18.246C60.5316 17.5257 59.3501 16.6155 59.3501 14.7003C59.3501 12.9358 60.7667 11.5957 62.9708 11.5957C64.546 11.5957 65.6745 12.115 66.4856 13.4774L64.5578 14.65C64.1346 13.9297 63.6761 13.645 62.9649 13.645C62.242 13.645 61.7835 14.0805 61.7835 14.65C61.7835 15.3536 62.242 15.6384 63.3058 16.0795L63.923 16.3308C66.0272 17.1851 67.2086 18.0617 67.2086 20.0272C67.2086 22.1379 65.457 23.2993 63.1119 23.2993V23.2993Z" fill="white"/>
<path d="M96.2452 25.2592C95.9095 25.2592 95.5689 25.1699 95.2733 25.0011L92.1825 23.1893C91.7217 22.9312 91.9471 22.8418 92.0974 22.7922C92.7135 22.5788 92.8388 22.5341 93.495 22.1618C93.5651 22.1221 93.6553 22.137 93.7254 22.1817L96.0999 23.5765C96.1851 23.6261 96.3053 23.6261 96.3854 23.5765L105.638 18.285C105.723 18.2354 105.778 18.1361 105.778 18.0368V7.45388C105.778 7.34963 105.723 7.25532 105.633 7.20072L96.3854 1.91421C96.3003 1.86457 96.1851 1.86457 96.0999 1.91421L86.8575 7.20568C86.7673 7.25532 86.7122 7.3546 86.7122 7.45884V18.0368C86.7122 18.1361 86.7673 18.2354 86.8575 18.2801L89.3923 19.7295C90.7699 20.4096 91.6114 19.6104 91.6114 18.8013V8.3573C91.6114 8.20838 91.7317 8.09421 91.882 8.09421H93.0542C93.1994 8.09421 93.3247 8.20838 93.3247 8.3573V18.8062C93.3247 20.623 92.3228 21.6654 90.5845 21.6654C90.0485 21.6654 89.6277 21.6654 88.4555 21.0896L86.0309 19.7047C85.4298 19.3622 85.0591 18.7218 85.0591 18.0319V7.45388C85.0591 6.76886 85.4298 6.12356 86.0309 5.78105L95.2733 0.489577C95.8595 0.161962 96.6359 0.161962 97.217 0.489577L106.469 5.78602C107.071 6.12852 107.441 6.76886 107.441 7.45884V18.0368C107.441 18.7218 107.071 19.3622 106.469 19.7097L97.217 25.0011C96.9215 25.1699 96.5858 25.2592 96.2452 25.2592ZM103.714 14.8302C103.714 12.8496 102.362 12.3234 99.5214 11.9511C96.6459 11.5739 96.3554 11.3803 96.3554 10.7151C96.3554 10.1641 96.6009 9.42949 98.7299 9.42949C100.628 9.42949 101.33 9.83653 101.62 11.1073C101.645 11.2264 101.756 11.3158 101.881 11.3158H103.083C103.158 11.3158 103.228 11.286 103.278 11.2314C103.329 11.1768 103.354 11.1023 103.349 11.0279C103.163 8.83879 101.695 7.8212 98.7299 7.8212C96.0899 7.8212 94.5169 8.92318 94.5169 10.7747C94.5169 12.7801 96.0849 13.3361 98.6146 13.5842C101.645 13.8771 101.881 14.3189 101.881 14.9096C101.881 15.9322 101.049 16.369 99.1006 16.369C96.6509 16.369 96.1149 15.7584 95.9346 14.5522C95.9146 14.4231 95.8044 14.3288 95.6691 14.3288H94.4718C94.3216 14.3288 94.2063 14.448 94.2063 14.5919C94.2063 16.1357 95.0529 17.9773 99.1056 17.9773C102.031 17.9723 103.714 16.8256 103.714 14.8302V14.8302Z" fill="white"/>
<path d="M147.975 8.77706C147.655 8.67127 147.336 8.57135 147.016 8.47731C147.07 8.25985 147.117 8.04239 147.164 7.82493C147.892 4.32202 147.413 1.50676 145.798 0.578141C144.243 -0.309341 141.705 0.613405 139.138 2.83505C138.884 3.05251 138.636 3.28173 138.399 3.51094C138.239 3.35813 138.074 3.20532 137.908 3.05839C135.217 0.683933 132.52 -0.315218 130.906 0.619282C129.356 1.51264 128.895 4.16333 129.545 7.47816C129.61 7.80729 129.681 8.13055 129.764 8.45968C129.386 8.56547 129.013 8.68302 128.664 8.80644C125.506 9.89376 123.24 11.6099 123.24 13.3849C123.24 15.2186 125.654 17.0583 128.936 18.175C129.202 18.2631 129.468 18.3513 129.74 18.4277C129.652 18.7803 129.575 19.1271 129.504 19.4856C128.883 22.7475 129.368 25.3336 130.917 26.2211C132.514 27.1379 135.199 26.1976 137.814 23.923C138.021 23.7408 138.228 23.5527 138.435 23.3529C138.695 23.6056 138.967 23.8466 139.239 24.0817C141.77 26.2446 144.272 27.1203 145.816 26.2328C147.413 25.316 147.933 22.536 147.259 19.1506C147.206 18.892 147.147 18.6275 147.081 18.3572C147.271 18.3043 147.454 18.2455 147.637 18.1867C151.05 17.0641 153.522 15.248 153.522 13.3849C153.522 11.6041 151.192 9.87612 147.975 8.77706V8.77706ZM139.972 3.78718C142.172 1.88291 144.225 1.13649 145.159 1.67133C146.159 2.24143 146.543 4.54536 145.916 7.5722C145.875 7.77203 145.834 7.96598 145.78 8.15994C144.467 7.86607 143.137 7.65448 141.8 7.53694C141.031 6.44375 140.191 5.39758 139.28 4.41606C139.511 4.19859 139.736 3.99289 139.972 3.78718V3.78718ZM133.129 16.4353C133.431 16.9466 133.739 17.4579 134.064 17.9575C133.141 17.8576 132.224 17.7106 131.32 17.5167C131.58 16.6704 131.905 15.7946 132.284 14.9013C132.556 15.4185 132.834 15.9298 133.129 16.4353V16.4353ZM131.337 9.36479C132.189 9.17672 133.094 9.02391 134.034 8.90636C133.721 9.39418 133.413 9.89376 133.123 10.3992C132.834 10.8988 132.55 11.4101 132.284 11.9273C131.911 11.0516 131.598 10.1935 131.337 9.36479ZM132.958 13.4143C133.348 12.6032 133.774 11.8098 134.224 11.0281C134.673 10.2464 135.158 9.48822 135.667 8.74179C136.554 8.67714 137.459 8.64188 138.381 8.64188C139.304 8.64188 140.215 8.67714 141.096 8.74179C141.599 9.48234 142.078 10.2405 142.533 11.0163C142.989 11.7921 143.415 12.5856 143.817 13.3908C143.42 14.2019 142.995 15.0012 142.539 15.7887C142.09 16.5704 141.611 17.3286 141.108 18.0809C140.227 18.1456 139.31 18.175 138.381 18.175C137.453 18.175 136.554 18.1456 135.684 18.0927C135.17 17.3463 134.685 16.5822 134.229 15.8005C133.774 15.0188 133.354 14.2254 132.958 13.4143ZM143.639 16.4235C143.941 15.9063 144.225 15.3832 144.503 14.8542C144.881 15.7065 145.213 16.5704 145.502 17.4579C144.586 17.6636 143.657 17.8223 142.723 17.9281C143.042 17.4344 143.344 16.929 143.639 16.4235ZM144.491 11.9273C144.213 11.4101 143.929 10.8929 143.633 10.3875C143.344 9.88788 143.042 9.39418 142.728 8.90636C143.681 9.02391 144.591 9.1826 145.443 9.37655C145.171 10.2464 144.852 11.0927 144.491 11.9273V11.9273ZM138.393 5.31529C139.014 5.98531 139.6 6.6906 140.144 7.41939C138.973 7.36649 137.796 7.36649 136.625 7.41939C137.204 6.66121 137.802 5.95593 138.393 5.31529ZM131.532 1.71247C132.526 1.13649 134.732 1.95932 137.057 4.00464C137.204 4.13394 137.352 4.275 137.506 4.41606C136.589 5.39758 135.744 6.44375 134.969 7.53694C133.632 7.65448 132.307 7.86019 130.994 8.14818C130.917 7.84844 130.852 7.54281 130.787 7.23719C130.231 4.39255 130.598 2.24731 131.532 1.71247V1.71247ZM130.083 17.2052C129.835 17.1347 129.593 17.0583 129.35 16.976C128.09 16.5822 126.659 15.9592 125.624 15.1422C125.027 14.7308 124.624 14.0961 124.512 13.3849C124.512 12.3094 126.381 10.934 129.078 9.99955C129.415 9.882 129.758 9.77621 130.101 9.67629C130.503 10.9517 130.988 12.2036 131.55 13.4143C130.982 14.6427 130.492 15.9122 130.083 17.2052V17.2052ZM136.98 22.965C136.004 23.8525 134.874 24.5578 133.644 25.0397C132.987 25.3512 132.23 25.3806 131.556 25.1161C130.616 24.5754 130.225 22.5007 130.758 19.7089C130.823 19.3798 130.894 19.0507 130.977 18.7274C132.301 19.0095 133.638 19.2035 134.992 19.3034C135.773 20.4025 136.631 21.4545 137.547 22.4419C137.358 22.6241 137.169 22.8004 136.98 22.965ZM138.429 21.5368C137.825 20.8903 137.222 20.1733 136.637 19.4033C137.204 19.4268 137.79 19.4386 138.381 19.4386C138.991 19.4386 139.588 19.4268 140.179 19.3974C139.635 20.1439 139.05 20.855 138.429 21.5368V21.5368ZM146.159 23.3C146.106 24.0171 145.751 24.6871 145.183 25.1396C144.243 25.6803 142.238 24.9751 140.073 23.1296C139.824 22.918 139.576 22.6888 139.322 22.4537C140.227 21.4604 141.061 20.4084 141.818 19.3034C143.172 19.1917 144.521 18.986 145.851 18.6863C145.91 18.9273 145.964 19.1682 146.011 19.4033C146.301 20.6728 146.348 21.9952 146.159 23.3V23.3ZM147.235 16.9819C147.07 17.0347 146.904 17.0876 146.733 17.1347C146.319 15.8534 145.81 14.6015 145.224 13.3849C145.792 12.1859 146.271 10.9517 146.673 9.68805C146.981 9.77621 147.277 9.87025 147.561 9.96428C150.317 10.9047 152.251 12.3035 152.251 13.3732C152.251 14.5251 150.187 16.0121 147.235 16.9819ZM138.381 16.1002C139.878 16.1002 141.09 14.8954 141.09 13.4084C141.09 11.9214 139.878 10.7166 138.381 10.7166C136.885 10.7166 135.673 11.9214 135.673 13.4084C135.673 14.8954 136.885 16.1002 138.381 16.1002Z" fill="white"/>
<path d="M181.171 25.4997L170.537 19.4487V7.37106L181.171 1.31998L191.805 7.37106V19.4487L181.171 25.4997ZM171.752 18.7816L181.171 24.141L190.59 18.7816V8.03814L181.171 2.67871L171.752 8.03814V18.7816Z" fill="white"/>
<path d="M181.171 4.33995C182.345 4.33995 183.298 3.42301 183.298 2.29191C183.298 1.16081 182.345 0.243866 181.171 0.243866C179.996 0.243866 179.044 1.16081 179.044 2.29191C179.044 3.42301 179.996 4.33995 181.171 4.33995Z" fill="white"/>
<path d="M181.171 26.5759C182.345 26.5759 183.298 25.6589 183.298 24.5278C183.298 23.3967 182.345 22.4798 181.171 22.4798C179.996 22.4798 179.044 23.3967 179.044 24.5278C179.044 25.6589 179.996 26.5759 181.171 26.5759Z" fill="white"/>
<path d="M171.448 20.7243C172.623 20.7243 173.575 19.8074 173.575 18.6763C173.575 17.5452 172.623 16.6282 171.448 16.6282C170.274 16.6282 169.321 17.5452 169.321 18.6763C169.321 19.8074 170.274 20.7243 171.448 20.7243Z" fill="white"/>
<path d="M190.893 20.7243C192.068 20.7243 193.02 19.8074 193.02 18.6763C193.02 17.5452 192.068 16.6282 190.893 16.6282C189.719 16.6282 188.767 17.5452 188.767 18.6763C188.767 19.8074 189.719 20.7243 190.893 20.7243Z" fill="white"/>
<path d="M171.448 10.1915C172.623 10.1915 173.575 9.27457 173.575 8.14347C173.575 7.01237 172.623 6.09543 171.448 6.09543C170.274 6.09543 169.321 7.01237 169.321 8.14347C169.321 9.27457 170.274 10.1915 171.448 10.1915Z" fill="white"/>
<path d="M190.893 10.1915C192.068 10.1915 193.02 9.27457 193.02 8.14347C193.02 7.01237 192.068 6.09543 190.893 6.09543C189.719 6.09543 188.767 7.01237 188.767 8.14347C188.767 9.27457 189.719 10.1915 190.893 10.1915Z" fill="white"/>
<path d="M192.242 19.5539H170.099L181.171 0.816101L192.242 19.5539ZM172.19 18.3836H190.152L181.171 3.18247L172.19 18.3836Z" fill="white"/>
<path d="M208.819 0.243866L210.854 23.5077L219.981 26.5758L229.167 23.5077L231.202 0.243866H208.819ZM226.783 7.76141H216.07L216.309 10.665H226.544L225.752 19.3875L220.045 20.9744V20.9921H219.981L214.228 19.3875L213.879 14.9322H216.659L216.863 17.1716L219.981 18.0238L223.111 17.1716L223.461 13.5157H213.733L212.987 4.95776H227.04L226.783 7.76141V7.76141Z" fill="white"/>
<path d="M247.001 0.243866L249.155 23.5077L258.85 26.5758L268.546 23.5077L270.7 0.243866H247.001ZM266.324 4.94601L266.028 7.72615L258.912 10.6238L258.893 10.6297H265.775L264.985 19.2464L258.924 20.9333L252.827 19.217L252.432 14.8734H255.45L255.647 17.1245L258.893 17.9063L262.269 17.0011L262.498 13.3805L252.234 13.3511V13.3452L252.222 13.3511L252 10.6297L258.918 7.88484L259.319 7.72615H251.734L251.376 4.94601H266.324Z" fill="white"/>
</svg>
